<?xml version="1.0" encoding="UTF-8" standalone="no"?>
<!-- Created with Inkscape (http://www.inkscape.org/) -->

<svg
   xmlns:dc="http://purl.org/dc/elements/1.1/"
   xmlns:cc="http://creativecommons.org/ns#"
   xmlns:rdf="http://www.w3.org/1999/02/22-rdf-syntax-ns#"
   xmlns:svg="http://www.w3.org/2000/svg"
   xmlns="http://www.w3.org/2000/svg"
   xmlns:sodipodi="http://sodipodi.sourceforge.net/DTD/sodipodi-0.dtd"
   xmlns:inkscape="http://www.inkscape.org/namespaces/inkscape"
   width="24.318129mm"
   height="24.318129mm"
   viewBox="0 0 24.318129 24.318129"
   version="1.1"
   id="svg8"
   inkscape:version="0.92.1 r15371"
   sodipodi:docname="easy_logo.svg">
  <defs
     id="defs2" />
  <sodipodi:namedview
     id="base"
     pagecolor="#ffffff"
     bordercolor="#666666"
     borderopacity="1.0"
     inkscape:pageopacity="0.0"
     inkscape:pageshadow="2"
     inkscape:zoom="1.2708281"
     inkscape:cx="455.73674"
     inkscape:cy="-92.546847"
     inkscape:document-units="mm"
     inkscape:current-layer="text4487"
     showgrid="false"
     fit-margin-top="0"
     fit-margin-left="0"
     fit-margin-right="0"
     fit-margin-bottom="0"
     inkscape:window-width="2556"
     inkscape:window-height="1381"
     inkscape:window-x="2560"
     inkscape:window-y="57"
     inkscape:window-maximized="0" />
  <metadata
     id="metadata5">
    <rdf:RDF>
      <cc:Work
         rdf:about="">
        <dc:format>image/svg+xml</dc:format>
        <dc:type
           rdf:resource="http://purl.org/dc/dcmitype/StillImage" />
        <dc:title></dc:title>
      </cc:Work>
    </rdf:RDF>
  </metadata>
  <g
     inkscape:label="Layer 1"
     inkscape:groupmode="layer"
     id="layer1"
     transform="translate(-38.849343,-129.73373)">
    <g
       aria-label="easy"
       style="font-style:normal;font-variant:normal;font-weight:normal;font-stretch:normal;font-size:4.23333311px;line-height:125%;font-family:Consolas;-inkscape-font-specification:Consolas;text-align:center;letter-spacing:0px;word-spacing:0px;text-anchor:middle;fill:#ff0000;fill-opacity:1;stroke:none;stroke-width:0.26458332px;stroke-linecap:butt;stroke-linejoin:miter;stroke-opacity:1"
       id="text4487">
      <path
         d="m 43.365807,139.29104 q 0.518143,0 0.953603,0.17087 0.43546,0.16537 0.749653,0.48507 0.314192,0.3142 0.490581,0.77722 0.176389,0.46302 0.176389,1.05833 0,0.15985 -0.01654,0.26458 -0.01654,0.0992 -0.05512,0.15986 -0.03307,0.0606 -0.09922,0.0882 -0.06063,0.022 -0.15434,0.022 h -3.274219 q 0.03307,0.39687 0.143316,0.68902 0.110243,0.29214 0.292144,0.47955 0.181902,0.18742 0.429948,0.28112 0.248047,0.0882 0.551216,0.0882 0.303168,0 0.523654,-0.0717 0.225998,-0.0772 0.391363,-0.15985 0.170877,-0.0882 0.303168,-0.15985 0.132292,-0.0772 0.259072,-0.0772 0.15434,0 0.253559,0.12678 l 0.402387,0.51814 q -0.225998,0.26458 -0.501606,0.44097 -0.275608,0.17088 -0.573264,0.27561 -0.292144,0.0992 -0.595312,0.14331 -0.303169,0.0441 -0.584289,0.0441 -0.567751,0 -1.058333,-0.18741 -0.490582,-0.18742 -0.854384,-0.55673 -0.363802,-0.37483 -0.573264,-0.92053 -0.203949,-0.55121 -0.203949,-1.27331 0,-0.55672 0.181901,-1.04731 0.181901,-0.49609 0.518142,-0.85989 0.341754,-0.36932 0.826823,-0.58429 0.48507,-0.21497 1.096918,-0.21497 z m 0.02756,0.9977 q -0.534679,0 -0.837847,0.31419 -0.303168,0.30868 -0.391363,0.87643 h 2.315104 q 0,-0.23702 -0.06614,-0.452 -0.06063,-0.21497 -0.198438,-0.38033 -0.132292,-0.16537 -0.336241,-0.25908 -0.20395,-0.0992 -0.48507,-0.0992 z"
         style="font-style:normal;font-variant:normal;font-weight:bold;font-stretch:normal;font-size:11.28888893px;font-family:Carlito;-inkscape-font-specification:Carlito;fill:#ff0000;stroke-width:0.26458332px"
         id="path4529" />
      <path
         d="m 50.432388,144.8528 q -0.198438,0 -0.303169,-0.0551 -0.104731,-0.0606 -0.165364,-0.23703 l -0.121268,-0.3638 q -0.209462,0.1819 -0.402387,0.31971 -0.192925,0.1378 -0.402387,0.23151 -0.20395,0.0937 -0.440972,0.1378 -0.231511,0.0496 -0.518143,0.0496 -0.352777,0 -0.644922,-0.0937 -0.292144,-0.0992 -0.507118,-0.28663 -0.209461,-0.18741 -0.325217,-0.46302 -0.115755,-0.28112 -0.115755,-0.64492 0,-0.30317 0.15434,-0.60634 0.154341,-0.30317 0.523655,-0.5457 0.374826,-0.24805 0.992187,-0.4079 0.622874,-0.16536 1.548915,-0.18741 v -0.29215 q 0,-0.52916 -0.220486,-0.77721 -0.220486,-0.24805 -0.633897,-0.24805 -0.308681,0 -0.51263,0.0717 -0.198438,0.0717 -0.352778,0.15985 -0.154341,0.0827 -0.286632,0.15434 -0.132292,0.0717 -0.297656,0.0717 -0.143316,0 -0.248047,-0.0717 -0.09922,-0.0772 -0.159853,-0.1819 l -0.253559,-0.44097 q 0.474045,-0.44097 1.047309,-0.65595 0.573264,-0.21497 1.240235,-0.21497 0.479557,0 0.859895,0.15985 0.380339,0.15434 0.644922,0.44097 0.264584,0.28112 0.402387,0.67249 0.137804,0.39136 0.137804,0.85989 v 3.4451 z m -1.91823,-0.87092 q 0.374827,0 0.644922,-0.13229 0.275608,-0.13781 0.545703,-0.41893 v -0.88194 q -0.545703,0.0221 -0.909505,0.0937 -0.35829,0.0661 -0.573264,0.17638 -0.214974,0.10473 -0.30868,0.24805 -0.08819,0.14332 -0.08819,0.30868 0,0.33073 0.181901,0.46853 0.187414,0.13781 0.507118,0.13781 z"
         style="font-style:normal;font-variant:normal;font-weight:bold;font-stretch:normal;font-size:11.28888893px;font-family:Carlito;-inkscape-font-specification:Carlito;fill:#ff0000;stroke-width:0.26458332px"
         id="path4531" />
      <path
         d="m 55.520104,140.48166 q -0.05512,0.0937 -0.121267,0.13229 -0.06063,0.0331 -0.154341,0.0331 -0.09922,0 -0.209461,-0.0496 -0.104731,-0.0551 -0.237023,-0.11576 -0.126779,-0.0661 -0.292144,-0.11575 -0.165365,-0.0551 -0.380339,-0.0551 -0.330729,0 -0.51263,0.15434 -0.181901,0.14883 -0.181901,0.40239 0,0.17088 0.104731,0.28663 0.104731,0.11025 0.275608,0.19844 0.176389,0.0827 0.391363,0.15434 0.220486,0.0717 0.451996,0.15434 0.23151,0.0827 0.446484,0.19844 0.220487,0.11024 0.391363,0.27561 0.176389,0.16536 0.28112,0.40238 0.104731,0.23703 0.104731,0.56776 0,0.39687 -0.137804,0.73311 -0.137804,0.33624 -0.407899,0.57878 -0.264583,0.24253 -0.661458,0.38034 -0.391363,0.1378 -0.909506,0.1378 -0.264583,0 -0.523654,-0.0496 -0.259071,-0.0496 -0.496094,-0.1378 -0.237023,-0.0937 -0.446484,-0.21498 -0.20395,-0.12126 -0.352778,-0.26458 l 0.325217,-0.52917 q 0.06063,-0.0937 0.143316,-0.14882 0.08268,-0.0551 0.214974,-0.0551 0.121267,0 0.225998,0.0661 0.110243,0.0661 0.237023,0.14883 0.126779,0.0772 0.303168,0.14331 0.176389,0.0662 0.440972,0.0662 0.198438,0 0.336242,-0.0496 0.143316,-0.0496 0.225998,-0.13229 0.08819,-0.0882 0.126779,-0.19844 0.0441,-0.11024 0.0441,-0.226 0,-0.24253 -0.181901,-0.37482 -0.181901,-0.13781 -0.457509,-0.23703 -0.275608,-0.0992 -0.595313,-0.20395 -0.314192,-0.10473 -0.5898,-0.28663 -0.275608,-0.1819 -0.457509,-0.47955 -0.181901,-0.29766 -0.181901,-0.78824 0,-0.34176 0.12678,-0.64492 0.126779,-0.30869 0.374826,-0.5402 0.253559,-0.23151 0.622874,-0.36931 0.374826,-0.1378 0.87092,-0.1378 0.270095,0 0.523654,0.0496 0.253559,0.0496 0.474045,0.14331 0.225999,0.0882 0.4079,0.21498 0.187413,0.12678 0.330729,0.2756 z"
         style="font-style:normal;font-variant:normal;font-weight:bold;font-stretch:normal;font-size:11.28888893px;font-family:Carlito;-inkscape-font-specification:Carlito;fill:#ff0000;stroke-width:0.26458332px"
         id="path4533" />
      <path
         d="m 58.557301,146.33557 q -0.06063,0.14331 -0.159853,0.21497 -0.09371,0.0772 -0.286631,0.0772 h -1.052822 l 0.975651,-2.20486 -2.033984,-5.04362 h 1.22921 q 0.170877,0 0.253559,0.0772 0.08819,0.0772 0.132292,0.17639 l 0.915017,2.70647 q 0.06063,0.14882 0.104731,0.29765 0.0441,0.14883 0.08819,0.29766 0.0441,-0.15434 0.09371,-0.30317 0.04961,-0.15434 0.110243,-0.30317 l 0.854384,-2.69544 q 0.03858,-0.11024 0.143316,-0.1819 0.104731,-0.0717 0.23151,-0.0717 h 1.118967 z"
         style="font-style:normal;font-variant:normal;font-weight:bold;font-stretch:normal;font-size:11.28888893px;font-family:Carlito;-inkscape-font-specification:Carlito;fill:#ff0000;stroke-width:0.26458332px"
         id="path4535" />
    </g>
    <circle
       style="opacity:1;fill:none;fill-opacity:1;stroke:#ff0000;stroke-width:1;stroke-linecap:round;stroke-linejoin:miter;stroke-miterlimit:4;stroke-dasharray:none;stroke-dashoffset:0;stroke-opacity:1"
       id="path4489"
       cx="51.008408"
       cy="141.89279"
       r="11.659064" />
    <path
       style="fill:#ff0000;fill-rule:evenodd;stroke:#ff0000;stroke-width:1;stroke-linecap:round;stroke-linejoin:miter;stroke-miterlimit:4;stroke-dasharray:none;stroke-opacity:1"
       d="M 42.55422,137.72885 H 59.662547"
       id="path4491"
       inkscape:connector-curvature="0" />
    <path
       style="fill:#ff0000;fill-rule:evenodd;stroke:#ff0000;stroke-width:0.99999994;stroke-linecap:round;stroke-linejoin:miter;stroke-miterlimit:4;stroke-dasharray:none;stroke-opacity:1"
       d="M 42.55927,146.49918 H 55.605896"
       id="path4491-0"
       inkscape:connector-curvature="0" />
  </g>
</svg>
